PathFileType	4	(X/Y/Z)	./resultDataOpenSim/trcMotMarkerGrf/sub09/qtm-05-01.trc
DataRate	CameraRate	NumFrames	NumMarkers	Units	OrigDataRate	OrigDataStartFrame	OrigNumFrames
250.000000	250.000000	13	24	m	250.000000	326	521
Frame#	Time	L.Toe.Tip			R.Toe.Tip			L.Ankle.Lat			R.Ankle.Lat			L.Ankle.Med			R.Ankle.Med			L.Heel			R.Heel			L.Knee.Lat			R.Knee.Lat			L.Knee.Med			R.Knee.Med			L.Thigh.Upper			R.Thigh.Upper			L.ASIS			R.ASIS			V.Sacral			L.Acromium			R.Acromium			C7			L.Elbow			R.Elbow			L.Wrist.Lat			R.Wrist.Lat
		X1	Y1	Z1	X2	Y2	Z2	X3	Y3	Z3	X4	Y4	Z4	X5	Y5	Z5	X6	Y6	Z6	X7	Y7	Z7	X8	Y8	Z8	X9	Y9	Z9	X10	Y10	Z10	X11	Y11	Z11	X12	Y12	Z12	X13	Y13	Z13	X14	Y14	Z14	X15	Y15	Z15	X16	Y16	Z16	X17	Y17	Z17	X18	Y18	Z18	X19	Y19	Z19	X20	Y20	Z20	X21	Y21	Z21	X22	Y22	Z22	X23	Y23	Z23	X24	Y24	Z24

326	1.3	0.14780121	-0.048702921	0.04175629	1.0217546	0.040842783	0.11861009	0.097773634	0.094084305	-0.038568335	0.87389437	0.053255123	0.15821297	0.12865278	0.093766173	0.053960654	0.87869168	0.091760153	0.06642499	0.034850022	0.12632897	0.0051900029	0.80429143	0.031874573	0.11170268	0.39158349	0.39866549	-0.06727335	0.86303131	0.50543278	0.21722051	0.39910375	0.38247412	0.057918703	0.84950481	0.49340582	0.091947352	0.54301838	0.77942483	-0.079298946	0.60617091	0.81468269	0.28862111	0.65596264	0.84919936	-0.033606235	0.67257155	0.88608171	0.20210122	0.50289928	0.93457903	0.092212029	0.70562472	1.3165803	-0.074853835	0.65525273	1.3304663	0.2518948	0.61015231	1.3751547	0.078650606	0.58212549	0.95718089	-0.14091393	0.49134342	1.0096892	0.33121662	0.81937717	0.82573273	-0.10141197	0.58242285	0.76243252	0.3958824
327	1.304	0.14967445	-0.046632448	0.040787614	1.0219151	0.040681248	0.11823929	0.10347281	0.097957377	-0.039127767	0.87414502	0.053175895	0.15800768	0.13465543	0.096849789	0.053272266	0.87900633	0.091657003	0.066215089	0.041619688	0.13179327	0.0046886847	0.80433745	0.031885009	0.11161102	0.4021891	0.39771233	-0.068001087	0.86815878	0.50496614	0.21723271	0.40956833	0.38105309	0.057202167	0.85493586	0.49329276	0.091742946	0.55039339	0.77947135	-0.078926353	0.61240466	0.81566894	0.28910983	0.66273724	0.84977418	-0.032803595	0.67880845	0.88690574	0.20285409	0.50944229	0.93558039	0.091760749	0.71265173	1.3172217	-0.074349862	0.6615548	1.3312969	0.25215123	0.61672866	1.3759463	0.07893192	0.5885813	0.95824402	-0.14055768	0.49822851	1.0099172	0.33157228	0.82363088	0.82327857	-0.1011046	0.59119437	0.76319207	0.39668888
328	1.308	0.15156433	-0.044328061	0.039793225	1.0219892	0.040574214	0.11785382	0.10941842	0.10208148	-0.039496981	0.8742941	0.053131688	0.15785731	0.14085856	0.10011663	0.052758141	0.87919653	0.091559195	0.06606624	0.048652622	0.13750288	0.0043333426	0.80431926	0.031885126	0.11154789	0.41310732	0.39673094	-0.068647318	0.87352636	0.50461456	0.21719442	0.42031156	0.37959699	0.056567164	0.8600517	0.49310887	0.091625699	0.55770773	0.7796254	-0.078606667	0.61855685	0.8165838	0.28959891	0.66939929	0.85045471	-0.032056727	0.68495531	0.88770458	0.20361785	0.51591565	0.93660028	0.091409929	0.71955136	1.317941	-0.073863838	0.66782227	1.3322119	0.25238805	0.62329158	1.3767844	0.079258805	0.59507045	0.95934951	-0.14021162	0.50498999	1.0102245	0.33193282	0.82780861	0.82083186	-0.10080907	0.60000526	0.76406004	0.39746184
329	1.312	0.15344429	-0.041889909	0.038716993	1.0219896	0.040496904	0.11769868	0.11567294	0.10647669	-0.039740352	0.87430648	0.053137764	0.15779518	0.14724234	0.10355973	0.052416664	0.87930471	0.091487752	0.066000909	0.055965414	0.14346889	0.0041166194	0.80425865	0.031880042	0.11151412	0.42432683	0.39572281	-0.069215867	0.87879752	0.5043404	0.21714746	0.43133727	0.37817401	0.055992131	0.86484413	0.49289774	0.091597335	0.5649873	0.77987112	-0.078385565	0.6246289	0.81742096	0.29009163	0.67595143	0.85123455	-0.031358325	0.69102801	0.88850245	0.20438705	0.52230796	0.93760095	0.091307931	0.72631677	1.3187373	-0.073399121	0.6740548	1.3332065	0.25260981	0.62977346	1.3776746	0.079579617	0.60158205	0.960498	-0.13987267	0.51178431	1.0106057	0.33235259	0.83191611	0.81840081	-0.10052358	0.6088298	0.76502393	0.39819085
330	1.316	0.15531773	-0.039331801	0.037498231	1.0219429	0.040428285	0.11777462	0.12223159	0.11112386	-0.039908557	0.87420959	0.053176451	0.15781853	0.15379634	0.10717485	0.052221933	0.87937728	0.091460485	0.066018188	0.063564001	0.14969871	0.0040278449	0.80417556	0.031868524	0.11151689	0.43575101	0.39468515	-0.069687522	0.88377897	0.50410151	0.2171376	0.44262124	0.37686948	0.05547361	0.86935126	0.4927107	0.091646331	0.57221174	0.78018012	-0.078240452	0.63061851	0.81818993	0.29058307	0.6823983	0.85210747	-0.030705267	0.69702565	0.88932515	0.2051585	0.52861265	0.93861015	0.091391953	0.73293936	1.3196131	-0.072960807	0.68025152	1.3342809	0.25281636	0.63609339	1.3786278	0.079834829	0.60810134	0.96168282	-0.13953566	0.51867872	1.0110623	0.33282959	0.83594967	0.81600131	-0.10025953	0.6176333	0.76607603	0.39886155
331	1.32	0.15721779	-0.036534195	0.036102435	1.0218737	0.040366537	0.11791764	0.12904895	0.11601194	-0.040027842	0.87407606	0.05321299	0.15789234	0.16052123	0.11097291	0.052136007	0.87943871	0.091480968	0.066096294	0.071448788	0.15619183	0.0040529266	0.80408491	0.031849717	0.11155808	0.44728131	0.39362277	-0.070056256	0.88847263	0.50389249	0.21716453	0.45400729	0.37571412	0.055034863	0.87363554	0.4925835	0.09175645	0.57932462	0.78053749	-0.078070212	0.63651959	0.8189128	0.29106063	0.68874339	0.85306569	-0.030100262	0.70294356	0.89020181	0.20592422	0.53484724	0.93966598	0.091549372	0.73941105	1.3205724	-0.072555113	0.6864072	1.3354387	0.25300341	0.64222697	1.3796497	0.080015856	0.6146132	0.96290211	-0.13919313	0.52562684	1.0115979	0.33333828	0.83989888	0.81365565	-0.10003688	0.62639692	0.76722192	0.39946008
332	1.324	0.15919334	-0.033332767	0.034530229	1.0218009	0.040317927	0.11800338	0.13609647	0.12116191	-0.040132295	0.87397902	0.053224784	0.15797574	0.16742175	0.11497227	0.052117632	0.87950066	0.091538476	0.066204271	0.079624458	0.16293164	0.0041780621	0.80400026	0.031829929	0.1116208	0.45887538	0.39255474	-0.070330476	0.89287803	0.50371339	0.21720097	0.46543642	0.37473589	0.054626818	0.87775104	0.49251821	0.09191197	0.58628596	0.78094778	-0.07780319	0.64232423	0.81961495	0.29151006	0.69500122	0.85410355	-0.029530285	0.70878352	0.89115258	0.20666961	0.5410006	0.94077974	0.091720989	0.7457292	1.3216161	-0.072191722	0.69250892	1.3366835	0.2531667	0.64821071	1.3807387	0.080157954	0.62110516	0.96416115	-0.13883731	0.53255567	1.0122169	0.33385239	0.84375351	0.81138646	-0.099875353	0.63513815	0.76847515	0.39997845
333	1.328	0.16129902	-0.0296626	0.032823629	1.021741	0.040282343	0.11802686	0.14340749	0.12660484	-0.040291739	0.87395302	0.053214354	0.15804291	0.17450153	0.11918232	0.052124228	0.87958055	0.091614553	0.066312361	0.088097137	0.16988395	0.0043925922	0.80393349	0.031817592	0.11167321	0.47053514	0.39151844	-0.070516756	0.89698777	0.50354239	0.21724312	0.47704067	0.37400766	0.054142999	0.88172688	0.49248601	0.09209857	0.59309362	0.78142013	-0.077450215	0.64802723	0.82032294	0.29192405	0.70121561	0.85522012	-0.028941976	0.71455588	0.89218293	0.2073779	0.54700649	0.94195647	0.091879573	0.75190088	1.3227368	-0.071884911	0.69854465	1.3380135	0.25330646	0.65409445	1.381893	0.08028792	0.6275674	0.96546233	-0.13845883	0.53939771	1.0129246	0.33433684	0.84750813	0.80920973	-0.099786706	0.64390827	0.76985132	0.40042059
334	1.332	0.16359737	-0.025586049	0.031067627	1.0217052	0.040253232	0.1180348	0.15104696	0.13234878	-0.040574725	0.87398653	0.053196717	0.15808591	0.18176624	0.12359948	0.05212219	0.87970093	0.091691693	0.066400629	0.09686261	0.17700626	0.0046848439	0.80389083	0.031814713	0.11169021	0.48228746	0.39056955	-0.070630328	0.90084868	0.50333805	0.21732243	0.4888166	0.37354566	0.053619122	0.88557512	0.49244377	0.092306367	0.59976159	0.7819583	-0.077055625	0.65362281	0.82106518	0.29230503	0.70744026	0.85641198	-0.028267741	0.72027428	0.89329122	0.2080362	0.55279234	0.94322276	0.092036184	0.75794536	1.3239208	-0.07165253	0.70450824	1.3394202	0.25342777	0.65991143	1.383117	0.080409463	0.63399197	0.96679906	-0.13804707	0.54607531	1.0137287	0.33473688	0.85116645	0.80713257	-0.099768485	0.65275137	0.77136108	0.40079703
335	1.336	0.16615888	-0.021155598	0.029377645	1.0216924	0.040224873	0.11804928	0.15899916	0.13833962	-0.040960956	0.87404387	0.053181809	0.15810813	0.18922688	0.12821632	0.052094046	0.87987302	0.091759551	0.066463123	0.10590045	0.18425921	0.0050294068	0.80387032	0.031817473	0.11166897	0.49417308	0.38976794	-0.070713808	0.90453029	0.50305995	0.21746467	0.50054383	0.37325289	0.053249089	0.88930484	0.49235582	0.092531019	0.60630293	0.78255969	-0.076654248	0.65909841	0.82187324	0.29265794	0.71366586	0.85766206	-0.027514747	0.72594862	0.89447735	0.20863837	0.55834788	0.9446103	0.092239093	0.76388353	1.3251581	-0.07150614	0.71039639	1.3408929	0.25353655	0.66566991	1.3844137	0.080519839	0.64036563	0.96816402	-0.13759302	0.55252715	1.0146352	0.33500231	0.85474462	0.80515941	-0.099809423	0.66164274	0.77299448	0.40110221
336	1.34	0.16904863	-0.016319236	0.027877357	1.0216913	0.040196301	0.1180628	0.16712924	0.1444623	-0.041340791	0.87409457	0.053169534	0.15811702	0.19689757	0.13303097	0.0520322	0.88008529	0.091816367	0.066504851	0.11517392	0.19161172	0.0053732827	0.80386323	0.031822377	0.11162411	0.50621543	0.38915198	-0.070819823	0.90807763	0.50269944	0.21765982	0.51212477	0.37302552	0.053148578	0.89292494	0.49221031	0.092770878	0.61273186	0.78322105	-0.076264047	0.66444011	0.82278184	0.29298293	0.71978261	0.85894329	-0.02680708	0.73158435	0.89574447	0.20918481	0.56376341	0.94610501	0.092504363	0.76971313	1.3264506	-0.071432968	0.71620716	1.3424246	0.25363392	0.67135654	1.3857707	0.080618697	0.64666751	0.96956083	-0.13709039	0.55878452	1.0156371	0.33515958	0.85826622	0.80330004	-0.09990293	0.67048195	0.77471546	0.40130574
337	1.344	0.17231722	-0.010990778	0.026670986	1.0216874	0.040170197	0.11806789	0.17529993	0.15060871	-0.041629166	0.87412767	0.053154447	0.15811879	0.20478798	0.1380521	0.051931813	0.88030801	0.091866505	0.066535357	0.12463759	0.19903894	0.0056343247	0.80385773	0.031828931	0.11157287	0.51837138	0.38871826	-0.07094968	0.91150363	0.50227865	0.21787195	0.52372485	0.37281862	0.053253598	0.8964383	0.49201538	0.09302724	0.61907126	0.78394755	-0.075889502	0.6696488	0.82382129	0.29327882	0.72566835	0.8602396	-0.026284501	0.73718527	0.89709372	0.2096794	0.56918157	0.94763853	0.092782294	0.77540647	1.3278107	-0.071398142	0.72194126	1.3440154	0.25371664	0.67695569	1.3871685	0.080705449	0.65288154	0.97099929	-0.13653498	0.56498596	1.0167142	0.33532724	0.86174247	0.80156687	-0.10005027	0.67917553	0.77648834	0.40138002
338	1.348	0.17601545	-0.0051462929	0.025825873	1.0216691	0.040149301	0.1180683	0.18347441	0.15672255	-0.04182811	0.87414325	0.053132738	0.15811721	0.21289135	0.14329759	0.051790052	0.88050933	0.091916257	0.066563601	0.13425512	0.20651894	0.0057188065	0.80384212	0.031838646	0.11152428	0.53054468	0.3884297	-0.07102853	0.9148095	0.50182007	0.21807046	0.53555661	0.37260902	0.053447488	0.89984464	0.49178589	0.093303575	0.62534741	0.78475222	-0.07553196	0.6747501	0.82500662	0.2935514	0.73130781	0.86155873	-0.025974024	0.74275407	0.89851739	0.21012564	0.57468121	0.9491503	0.093013938	0.78094513	1.3292456	-0.071377889	0.72760139	1.3456691	0.25378316	0.68246716	1.3886005	0.080774912	0.65900152	0.97248309	-0.13592406	0.57126679	1.0178487	0.33561278	0.86515487	0.79996884	-0.10025475	0.68771464	0.77830848	0.40132871
